<svg xmlns="http://www.w3.org/2000/svg" viewBox="0 0 72.39 86.11"><defs><style>.cls-1{fill:#0b6aa6;}</style></defs><title>Asset 1</title><g id="Layer_2" data-name="Layer 2"><g id="Layer_1-2" data-name="Layer 1"><rect class="cls-1" x="40.88" y="29.05" width="31.51" height="15.33"/><rect class="cls-1" y="29.05" width="31.51" height="15.33"/><rect class="cls-1" x="4.26" y="47.78" width="27.25" height="38.32"/><rect class="cls-1" x="40.88" y="47.78" width="27.25" height="38.32"/><path class="cls-1" d="M969.45,506.62c1.57,4.18,7.06,5.73,10.15,5.73,4.62,0,12.28-3.61,14.19-4.55,1.92.94,9.58,4.55,14.2,4.55,3.08,0,8.57-1.55,10.14-5.73.79-2.1.78-5.38-3.28-9.46.62-2.58,1.19-7.21-1.79-9.77a9.13,9.13,0,0,0-5.79-2c-3.53,0-9.53,1.89-13.48,13.25-3.95-11.36-9.95-13.25-13.47-13.25a9.08,9.08,0,0,0-5.79,2c-3,2.56-2.42,7.19-1.79,9.77C968.67,501.24,968.67,504.52,969.45,506.62Zm37.82-16.14a4,4,0,0,1,2.46.78c.79.68.55,3.71-.19,5.86l-.56,1.63,1.3,1.13c2.32,2,3.47,3.88,3.07,4.94-.51,1.34-3.35,2.42-5.36,2.42-2.39,0-7.09-1.79-10.46-3.32C999.71,495.46,1003.29,490.48,1007.27,490.48Zm-30,9.4,1.28-1.13-.55-1.62c-.73-2.16-1-5.19-.18-5.87a4,4,0,0,1,2.46-.78c4,0,7.55,5,9.73,13.44-3.36,1.53-8.07,3.32-10.45,3.32-2,0-4.86-1.08-5.36-2.42C973.84,503.76,975,501.91,977.31,499.88Z" transform="translate(-958.31 -485.37)"/></g></g></svg>